<svg width="20" height="20" viewBox="0 0 20 20" fill="none" xmlns="http://www.w3.org/2000/svg">
<path d="M5.83008 17.9998C5.66104 18.4777 5.37371 18.905 4.99489 19.2418C4.61607 19.5786 4.15811 19.8139 3.66373 19.9259C3.16936 20.0378 2.65468 20.0227 2.16772 19.882C1.68076 19.7413 1.23738 19.4795 0.878954 19.121C0.520527 18.7626 0.258731 18.3192 0.117992 17.8323C-0.0227479 17.3453 -0.0378449 16.8306 0.0741089 16.3363C0.186063 15.8419 0.421419 15.3839 0.75822 15.0051C1.09502 14.6263 1.52229 14.3389 2.00016 14.1699V5.83008C1.52229 5.66104 1.09502 5.37371 0.75822 4.99489C0.421419 4.61607 0.186063 4.15811 0.0741089 3.66373C-0.0378449 3.16936 -0.0227479 2.65468 0.117992 2.16772C0.258731 1.68076 0.520527 1.23738 0.878954 0.878954C1.23738 0.520527 1.68076 0.258731 2.16772 0.117992C2.65468 -0.0227479 3.16936 -0.0378449 3.66373 0.0741089C4.15811 0.186063 4.61607 0.421419 4.99489 0.75822C5.37371 1.09502 5.66104 1.52229 5.83008 2.00016H14.1699C14.3389 1.52229 14.6263 1.09502 15.0051 0.75822C15.3839 0.421419 15.8419 0.186063 16.3363 0.0741089C16.8306 -0.0378449 17.3453 -0.0227479 17.8323 0.117992C18.3192 0.258731 18.7626 0.520527 19.121 0.878954C19.4795 1.23738 19.7413 1.68076 19.882 2.16772C20.0227 2.65468 20.0378 3.16936 19.9259 3.66373C19.8139 4.15811 19.5786 4.61607 19.2418 4.99489C18.905 5.37371 18.4777 5.66104 17.9998 5.83008V14.1699C18.4777 14.3389 18.905 14.6263 19.2418 15.0051C19.5786 15.3839 19.8139 15.8419 19.9259 16.3363C20.0378 16.8306 20.0227 17.3453 19.882 17.8323C19.7413 18.3192 19.4795 18.7626 19.121 19.121C18.7626 19.4795 18.3192 19.7413 17.8323 19.882C17.3453 20.0227 16.8306 20.0378 16.3363 19.9259C15.8419 19.8139 15.3839 19.5786 15.0051 19.2418C14.6263 18.905 14.3389 18.4777 14.1699 17.9998H5.83008ZM5.83008 15.9999H14.1699C14.3195 15.5779 14.5614 15.1946 14.878 14.878C15.1946 14.5614 15.5779 14.3195 15.9999 14.1699V5.83008C15.5779 5.68048 15.1946 5.43856 14.878 5.12197C14.5614 4.80538 14.3195 4.42211 14.1699 4.00012H5.83008C5.68048 4.42211 5.43856 4.80538 5.12197 5.12197C4.80538 5.43856 4.42211 5.68048 4.00012 5.83008V14.1699C4.42211 14.3195 4.80538 14.5614 5.12197 14.878C5.43856 15.1946 5.68048 15.5779 5.83008 15.9999ZM3.00014 4.00012C3.26535 4.00012 3.5197 3.89477 3.70724 3.70724C3.89477 3.5197 4.00012 3.26535 4.00012 3.00014C4.00012 2.73493 3.89477 2.48058 3.70724 2.29305C3.5197 2.10552 3.26535 2.00016 3.00014 2.00016C2.73493 2.00016 2.48058 2.10552 2.29305 2.29305C2.10552 2.48058 2.00016 2.73493 2.00016 3.00014C2.00016 3.26535 2.10552 3.5197 2.29305 3.70724C2.48058 3.89477 2.73493 4.00012 3.00014 4.00012ZM16.9998 4.00012C17.2651 4.00012 17.5194 3.89477 17.7069 3.70724C17.8945 3.5197 17.9998 3.26535 17.9998 3.00014C17.9998 2.73493 17.8945 2.48058 17.7069 2.29305C17.5194 2.10552 17.2651 2.00016 16.9998 2.00016C16.7346 2.00016 16.4803 2.10552 16.2928 2.29305C16.1052 2.48058 15.9999 2.73493 15.9999 3.00014C15.9999 3.26535 16.1052 3.5197 16.2928 3.70724C16.4803 3.89477 16.7346 4.00012 16.9998 4.00012ZM16.9998 17.9998C17.2651 17.9998 17.5194 17.8945 17.7069 17.7069C17.8945 17.5194 17.9998 17.2651 17.9998 16.9998C17.9998 16.7346 17.8945 16.4803 17.7069 16.2928C17.5194 16.1052 17.2651 15.9999 16.9998 15.9999C16.7346 15.9999 16.4803 16.1052 16.2928 16.2928C16.1052 16.4803 15.9999 16.7346 15.9999 16.9998C15.9999 17.2651 16.1052 17.5194 16.2928 17.7069C16.4803 17.8945 16.7346 17.9998 16.9998 17.9998ZM3.00014 17.9998C3.26535 17.9998 3.5197 17.8945 3.70724 17.7069C3.89477 17.5194 4.00012 17.2651 4.00012 16.9998C4.00012 16.7346 3.89477 16.4803 3.70724 16.2928C3.5197 16.1052 3.26535 15.9999 3.00014 15.9999C2.73493 15.9999 2.48058 16.1052 2.29305 16.2928C2.10552 16.4803 2.00016 16.7346 2.00016 16.9998C2.00016 17.2651 2.10552 17.5194 2.29305 17.7069C2.48058 17.8945 2.73493 17.9998 3.00014 17.9998Z" fill="#A0A3BD"/>
</svg>
