<svg width="18" height="18" viewBox="0 0 18 18" fill="none" xmlns="http://www.w3.org/2000/svg">
<path d="M15.364 2.63609L13.95 4.05009C12.8049 2.90488 11.2982 2.19215 9.68648 2.03333C8.07481 1.8745 6.45793 2.27942 5.11133 3.17908C3.76473 4.07873 2.77174 5.41747 2.30154 6.96719C1.83134 8.5169 1.91302 10.1817 2.53268 11.678C3.15233 13.1742 4.27162 14.4093 5.69982 15.1728C7.12802 15.9363 8.77678 16.181 10.3652 15.8651C11.9535 15.5493 13.3833 14.6925 14.4107 13.4407C15.4382 12.1889 15.9999 10.6196 16 9.00008H18C18 11.0823 17.278 13.1 15.957 14.7096C14.6361 16.3191 12.7979 17.4209 10.7557 17.8271C8.71354 18.2333 6.59369 17.9188 4.75736 16.9372C2.92104 15.9557 1.48187 14.3678 0.68506 12.4441C-0.111747 10.5204 -0.216886 8.37991 0.387557 6.38738C0.992 4.39485 2.26863 2.67354 3.99991 1.51675C5.7312 0.359959 7.81003 -0.160747 9.8822 0.0433572C11.9544 0.247461 13.8917 1.16375 15.364 2.63609Z" fill="white"/>
</svg>
