<svg width="14" height="14" viewBox="0.33333587646484375 0.333343505859375 13.333328247070312 13.33331298828125" fill="none" xmlns="http://www.w3.org/2000/svg">
<path d="M7 14C3.1339 14 0 10.8661 0 7C0 3.1339 3.1339 0 7 0C10.8661 0 14 3.1339 14 7C14 10.8661 10.8661 14 7 14ZM7 12.6C8.48522 12.6 9.9096 12.01 10.9598 10.9598C12.01 9.9096 12.6 8.48522 12.6 7C12.6 5.51479 12.01 4.09041 10.9598 3.0402C9.9096 1.99 8.48522 1.4 7 1.4C5.51479 1.4 4.09041 1.99 3.0402 3.0402C1.99 4.09041 1.4 5.51479 1.4 7C1.4 8.48522 1.99 9.9096 3.0402 10.9598C4.09041 12.01 5.51479 12.6 7 12.6ZM4.9 4.2H9.1L10.85 6.65L7 10.5L3.15 6.65L4.9 4.2ZM5.621 5.6L4.977 6.503L7 8.526L9.023 6.503L8.379 5.6H5.621Z" fill="#FCFCFC"/>
</svg>
